<svg xmlns="http://www.w3.org/2000/svg" viewBox="0 0 800 450" width="800" height="450">
  <rect width="800" height="450" rx="12" fill="#0b0f19"/>
  <circle cx="40" cy="30" r="12" stroke="#00d4e8" stroke-width="3" stroke-dasharray="10 4" fill="none"/>
  <text x="65" y="36" fill="#fff" font-family="sans-serif" font-size="18" font-weight="bold">VeloStream</text>
  <rect x="150" y="80" width="500" height="160" rx="12" fill="#151b2b"/>
  <text x="180" y="120" fill="#00d4e8" font-family="sans-serif" font-size="28" font-weight="bold">Stream Anything.</text>
  <text x="180" y="155" fill="#00d4e8" font-family="sans-serif" font-size="28" font-weight="bold">Instantly.</text>
  <rect x="180" y="190" width="160" height="36" rx="18" fill="#00d4e8"/>
  <text x="208" y="213" fill="#000" font-family="sans-serif" font-size="14" font-weight="bold">Start Broadcasting</text>
  <circle cx="550" cy="160" r="40" stroke="#252b3b" stroke-width="2" fill="none"/>
  <circle cx="550" cy="160" r="25" stroke="#252b3b" stroke-width="2" fill="none"/>
  <circle cx="550" cy="160" r="10" fill="#00d4e8"/>
  <rect x="150" y="260" width="110" height="50" rx="8" fill="#151b2b"/>
  <rect x="280" y="260" width="110" height="50" rx="8" fill="#151b2b"/>
  <rect x="410" y="260" width="110" height="50" rx="8" fill="#151b2b"/>
  <rect x="540" y="260" width="110" height="50" rx="8" fill="#151b2b"/>
  <circle cx="100" cy="350" r="4" fill="#00d4e8"/>
  <line x1="100" y1="350" x2="180" y2="400" stroke="#00d4e8" stroke-width="1" opacity="0.3"/>
  <circle cx="180" cy="400" r="4" fill="#00d4e8"/>
</svg>
